<svg width="48" height="48" viewBox="0 0 48 48" xmlns="http://www.w3.org/2000/svg">
    <path d="M24 48c-13.234 0-24-10.766-24-24 0-13.233 10.766-24 24-24 13.233 0 24 10.766 24 24s-10.766 24-24 24zm-3.716-24.052l-7.338-7.353c-1.019-1.021-1.019-2.676 0-3.697s2.67-1.021 3.689 0l7.338 7.353 7.338-7.353c1.019-1.021 2.67-1.021 3.689 0 1.019 1.021 1.019 2.676 0 3.697l-7.338 7.353 7.389 7.404c1.019 1.021 1.019 2.676 0 3.697s-2.67 1.021-3.689 0l-7.389-7.404-7.389 7.404c-1.019 1.021-2.67 1.021-3.689 0-1.019-1.021-1.019-2.676 0-3.697l7.389-7.404zm-16.284-.011c0 11.028 8.972 20 20 20s20-8.972 20-20-8.971-20-20-20c-11.028 0-20 8.972-20 20z" fill="#ccc"/>
</svg>
