<svg width="12" height="13" viewBox="0 0 12 13" xmlns="http://www.w3.org/2000/svg">
    <path d="M7.414 7.8c.391-.4.586-.9.586-1.4 0-.6-.195-1.1-.586-1.5-.39-.3-.862-.5-1.414-.5-.552 0-1.023.2-1.414.5-.391.4-.586.9-.586 1.5 0 .5.195 1 .586 1.4.391.4.862.6 1.414.6.552 0 1.024-.2 1.414-.6m4.586-.6c0 .1-.021.2-.062.2-.042.1-.094.1-.157.1l-1.445.2c-.099.3-.2.6-.305.8.183.2.461.6.836 1l.078.2c0 .1-.023.2-.07.2-.141.2-.398.5-.773.9-.375.3-.62.5-.735.5-.062 0-.13 0-.203-.1l-1.078-.8-.711.3c-.083.7-.159 1.2-.226 1.4-.037.2-.131.3-.282.3h-1.734l-.195-.1c-.052 0-.081-.1-.086-.2l-.219-1.4c-.255-.1-.49-.2-.703-.3l-1.102.8c-.052.1-.117.1-.195.1-.073 0-.138 0-.195-.1-.656-.6-1.086-1-1.289-1.3-.036 0-.055-.1-.055-.2l.063-.2c.078-.1.211-.2.398-.5l.422-.5c-.141-.3-.247-.5-.32-.8l-1.43-.2c-.068 0-.122 0-.164-.1l-.062-.2v-1.7l.062-.2c.042-.1.091-.1.148-.1l1.453-.2c.073-.3.174-.5.305-.7-.208-.3-.487-.7-.836-1.1-.052-.1-.078-.1-.078-.2l.07-.2c.135-.2.391-.5.766-.8.38-.4.628-.6.742-.6.068 0 .135 0 .203.1l1.078.8.711-.3c.083-.7.159-1.2.227-1.4.036-.2.13-.2.281-.2h1.922c.057.1.088.1.094.2l.218 1.4c.255.1.49.2.703.3l1.11-.8c.047-.1.109-.1.187-.1.068 0 .133 0 .196.1.671.6 1.101 1.1 1.289 1.3l.054.2-.062.2c-.078.1-.211.3-.399.5l-.421.5c.135.3.242.6.32.8l1.43.2.164.1.062.2v1.7z" fill="#BDC3C7"/>
</svg>
