<svg width="401" height="512" viewBox="0 0 401 512">
    <path d="M37.339 415.67h-37.121v-64.252h37.121v-45.049h-37.11v-63.302h37.11v-243.068h190.876c54.346 0 96.563 14.054 126.652 42.161s45.133 65.115 45.133 111.024c0 46.612-15.044 83.795-45.133 111.551-30.089 27.756-72.306 41.634-126.652 41.634h-115.952v45.049h149.545v64.252h-149.545v95.883h-74.924v-95.883zm74.924-173.407h115.952c34.52 0 60.294-9.31 77.321-27.932 17.027-18.621 20.54-32.102 20.54-60.444 0-28.342-3.572-41.998-20.715-60.971-17.144-18.973-42.859-28.459-77.146-28.459h-115.952v177.805z"/>
</svg>
