<svg width="33" height="31" viewBox="0 0 33 31" xmlns="http://www.w3.org/2000/svg">
  <g fill="#fff">
    <path d="M28.827 21.865c-1.936 0-3.515-1.568-3.515-3.509 0-1.943 1.579-3.512 3.515-3.512 1.922 0 3.499 1.569 3.499 3.512 0 1.941-1.577 3.509-3.499 3.509zm0-5.196c-.935 0-1.682.764-1.682 1.687 0 .921.747 1.672 1.682 1.672.919 0 1.666-.751 1.666-1.672 0-.923-.747-1.687-1.666-1.687z"></path>
    <path d="M14.405 24.629h1.821v6.311h-1.821v-6.311z"></path>
    <path d="M17.045 24.629h1.821v6.311h-1.821v-6.311z"></path>
    <path d="M24.664 3.207l1.791-1.798-1.299-1.289-1.779 1.798-.003-.005-1.3 1.291.003.005-.003.003 2.31 2.31-1.775 1.781 1.286 1.304 3.082-3.091-2.313-2.307"></path>
    <path d="M4.298 14.844l-3.876 6.713h7.738l-3.862-6.713zm.001 3.481l.855 1.486h-1.727l.872-1.486z"></path>
    <path d="M12.359 2.086l-1.287-1.303-2.228 2.234-2.227-2.234-1.287 1.303 2.228 2.221-2.228 2.235 1.287 1.304 2.227-2.235 2.228 2.235 1.287-1.304-2.221-2.235 2.221-2.221"></path>
  </g>
</svg>
